<svg width="512" height="322" viewBox="0 0 512 322" fill="none" xmlns="http://www.w3.org/2000/svg">
<g clip-path="url(#clip0_104_3)">
<path d="M0 26.8063V295.194C0 309.998 12.0016 322 26.8063 322H485.194C499.998 322 512 309.998 512 295.194V70.8129C512 56.0082 499.998 44.0067 485.194 44.0067H242.977C233.41 44.0067 224.62 38.8606 218.774 31.2865C208.744 18.2891 191.098 0 171.225 0H26.7644C11.9597 0 0 12.0016 0 26.8063Z" fill="#60696B"/>
<path d="M512 91.8069V288.194C512 302.998 499.998 315 485.194 315H26.8063C12.0016 315 0 302.998 0 288.194V112.618C0 97.8138 11.962 85.8122 26.7667 85.8122H162.178C207.749 85.8122 201.382 64.9989 232.544 65C317.567 65.003 433.546 65.0015 485.239 65.0005C500.044 65.0003 512 77.002 512 91.8069Z" fill="url(#paint0_linear_104_3)"/>
</g>
<defs>
<linearGradient id="paint0_linear_104_3" x1="512" y1="65" x2="102.483" y2="429.986" gradientUnits="userSpaceOnUse">
<stop offset="0.234375" stop-color="#858E96"/>
<stop offset="1" stop-color="#60696B"/>
</linearGradient>
<clipPath id="clip0_104_3">
<rect width="512" height="322" fill="white"/>
</clipPath>
</defs>
</svg>
